<svg enable-background="new 0 0 140 140" height="512" viewBox="0 0 140 140" width="512" xmlns="http://www.w3.org/2000/svg"><circle cx="70" cy="70" fill="#dc594e" r="64"/><path d="m29.8699951 31.5700684h23.8400269l23.25-5.25 5.25 5.25h3.8999634l47.2700195 47.2698975c-4.3099976 31.1600341-31.0300293 55.1600341-63.3800049 55.1600341-5.8300171 0-11.4699707-.7900391-16.8300171-2.25l-23.2999878-23.3000488v-35.3099366l-7.7700195-34.4400635 7.7700195-1.7600098z" opacity=".1"/><path d="m29.870043 31.568583h56.23999v76.879883h-56.23999z" fill="#dad7dc" transform="matrix(.975 -.22 .22 .975 -13.981 14.473)"/><path d="m29.870043 31.568583h56.23999v76.879883h-56.23999z" fill="#e6e7e8"/><g fill="#b0b1b5"><path d="m35.488827 74.614288h45.002426v1.604438h-45.002426z" transform="matrix(-1 0 0 -1 115.98 150.833)"/><path d="m35.488827 80.101502h45.002426v1.604438h-45.002426z" transform="matrix(-1 0 0 -1 115.98 161.807)"/><path d="m35.488827 85.588722h45.002426v1.604438h-45.002426z" transform="matrix(-1 0 0 -1 115.98 172.782)"/><path d="m35.488827 91.075935h45.002426v1.604438h-45.002426z" transform="matrix(-1 0 0 -1 115.98 183.756)"/><path d="m35.488827 96.563149h45.002426v1.604438h-45.002426z" transform="matrix(-1 0 0 -1 115.98 194.731)"/></g><path d="m96.2200165 73.5185318 3.9100342 3.9099121-4.75 4.75-3.9100342-3.9099121c-8.6300049 6.3299561-20.7999878 5.5999756-28.589962-2.1999512-8.6000366-8.6000977-8.6000366-22.5400352 0-31.1501427 8.5999718-8.5998535 22.5399742-8.5998535 31.1499596 0 7.790039 7.8000489 8.5200195 19.9799767 2.1900024 28.6000939z" fill="#304651"/><circle cx="78.452" cy="60.498" fill="#ececec" r="17.91"/><circle cx="78.452" cy="60.498" fill="#4388b9" r="15.704"/><path d="m94.7758179 76.8220139c2.2911148-2.2911224 6.1058655-2.1908798 8.520546.2238083l12.7228165 12.7228165c2.4146423 2.4146423 2.5149307 6.2294312.2238083 8.520546-2.2910843 2.2910843-6.1059113 2.1908417-8.5205536-.2238007l-12.7228166-12.7228166c-2.4146805-2.4146881-2.5148849-6.2294693-.2238006-8.5205535z" fill="#293b44"/><path d="m94.166985 80.887016h11.73338v2.385626h-11.73338z" fill="#48b19a" transform="matrix(-.707 .707 -.707 -.707 228.807 69.385)"/><path d="m104.634552 91.354576h11.73338v2.385626h-11.73338z" fill="#48b19a" transform="matrix(-.707 .707 -.707 -.707 254.078 79.852)"/><path d="m74.5314102 65.1531143c.3042984 1.8924103 1.944046 3.3442307 3.920929 3.3442307 1.9768982 0 3.6166687-1.4518204 3.9209442-3.3442764-.6979294-.4856796-.6664963-1.1535988-.6664963-1.1535988v-2.0685425h-6.5088577l-.0161972 2.0703468s.0476532.6661377-.650322 1.1518402z" fill="#d6b24e"/><path d="m83.5816956 53.8088837c-.0011215 0-.0021973.3548126-.003273.3548126-.0692673-2.821209-2.3481369-5.4619904-5.1260529-5.4619904-2.7779083 0-5.0568237 2.6407814-5.1260529 5.4619904-.0010681 0-.0021439-.3548126-.0032654-.3548126-.5663757 0-1.0254669 1.2797928-1.0254669 2.421402 0 1.1416054.4590912 2.0669327 1.0254669 2.0669327v.0737915c0 1.4101753 1.2284622 3.1944389 2.4829865 4.6488152 1.3987808 1.6216393 3.8938446 1.6216393 5.2926254 0 1.25457-1.4543762 2.4830322-3.2386398 2.4830322-4.6488152v-.0737915c.56633 0 1.0254669-.9253273 1.0254669-2.0669327.0000001-1.1416092-.4591369-2.421402-1.0254668-2.421402z" fill="#ffd25a"/><path d="m79.7392578 65.6921158 2.7932358 1.3732223-2.9017029 8.5077439-.8534469-1.9534302-.0758591-6.8654709z" fill="#e6e7e8"/><path d="m92.1165466 68.2485123c-.6799927 1.1999512-1.539978 2.3299561-2.5599976 3.3499756-.6900024.6900635-1.4400024 1.3099365-2.2199707 1.8399658-.0100098.0100098-.0200195.0200195-.0400391.0200195-1.8499756 1.2800293-3.8999634 2.1000977-6.0299683 2.4799805-.4299927.0800781-.8699951.1500244-1.2999878.1900635l.8899536-3.0300293.7600098-3.3399658v-.0100098l.6400146-2.8200684.1699829-.7199707 1.2700195-1.4199219s6.8900146 1.5100098 8.2700195 3.25c.049988.0699463.1099856.1398926.1499636.209961z" fill="#344e5c"/><path d="m81.7161865 63.7722168-3.2672271 1.7014542 2.5485458 1.5916671z" fill="#dad7dc"/><path d="m77.1586609 65.6921158-2.7932358 1.3732223 2.9017029 8.5077439.8534393-1.9534302.0758667-6.8654709z" fill="#e6e7e8"/><path d="m76.9465637 76.1285172c-.4400024-.0400391-.8800049-.0999756-1.3200073-.1900635-2.1300049-.3798828-4.1900024-1.1999512-6.0299683-2.4699707-.0100098-.0100098-.0200195-.0100098-.0300293-.0300293-.7799683-.5300293-1.5299683-1.1398926-2.2199707-1.8399658-1.0300293-1.0299072-1.8800049-2.1600342-2.5599976-3.3699951.039978-.0700684.0899658-.1300049.1399536-.1899414 1.3800049-1.7299805 8.2700195-3.25 8.2700195-3.25l1.2800293 1.4199219.1599731.7199707v.0100098l.6400146 2.7800293.0100098.0500488.7599487 3.3299561z" fill="#344e5c"/><path d="m75.1817322 63.7722168 3.2672272 1.7014542-2.5485459 1.5916671z" fill="#dad7dc"/><path d="m79.726593 76.1484146c-.2400513.0200195-.4800415.0300293-.7200317.0400391-.3699951.0200195-.75.0200195-1.1199951 0-.2399902-.0100098-.4700317-.0200195-.710022-.0400391l.0599976-.6799316.1300049-1.6899414.4200439-5.3400879.0799561-1.0499268-.6099854-1.1700439.2600098-.1599121.9299927-.5800781.9299927.5800781.2600098.1599121-.5999756 1.1700439.0799561 1.0499268.4200439 5.3100586.1299438 1.6999512z" fill="#f37735"/><path d="m77.8865662 76.1884537c-.2399902-.0100098-.4700317-.0200195-.710022-.0400391-.0700073-.0098877-.1499634-.0098877-.2299805-.0198975-.4400024-.0400391-.8800049-.0999756-1.3200073-.1900635l-2.9299927-5.6699219 1.4699707-.8601074-1.6799927-.9199219.710022-3.6999512 1.9899902-1.010006.0100098.0400391v.0098877l.1699829.760006.3900146 1.7900391.1500244.6900635.1300049.5998535 1.3299561 6.1101074.2300415 1.0400391z" fill="#293b44"/><path d="m82.7365417 69.4084244 1.460022.8601074-2.9299927 5.6699219c-.4299927.0800781-.8699951.1500244-1.2999878.1900635h-.0100098c-.0800171.0100098-.1600342.0100098-.2299805.0198975-.2400513.0200195-.4800415.0300293-.7200317.0400391l.289978-1.369873.2400513-1.0700684 1.3199463-6.0700684.1300049-.6098633v-.0100098l.1500244-.6800537.5700073-2.5999718h.0100098l1.9799805 1.010006.710022 3.6999512z" fill="#293b44"/><path d="m82.3465881 55.2485161c-.0200195-.2800293-.2400513-.5-.5200195-.5h-2.3800049c-.25 0-.4500122.1799316-.5.4199219-.3099976-.1699219-.6799927-.1699219-.9799805 0-.0599976-.2399902-.2600098-.4199219-.5100098-.4199219h-2.3800049c-.2800293 0-.5.2199707-.5200195.5h-1.4299927v.3499756h1.4299927v.4100342c0 .9099121.7399902 1.6499023 1.6500244 1.6499023h.1300049c.9099731 0 1.6499634-.7399902 1.6499634-1.6499023v-.4399414c.2600098-.2600098.6700439-.2600098.9299927 0v.4399414c0 .9099121.7400513 1.6499023 1.6500244 1.6499023h.1400146c.8999634 0 1.6400146-.7399902 1.6400146-1.6499023v-.4100342h1.4299927v-.3499756zm-4.7100219.7600097c0 .7199707-.5800171 1.3000488-1.2999878 1.3000488h-.1300049c-.7200317 0-1.2999878-.5800781-1.2999878-1.3000488v-.7299805c0-.1000977.0799561-.1800537.1699829-.1800537h2.3800049c.0999756 0 .1799927.0799561.1799927.1800537zm4.3599853 0c0 .7199707-.5800171 1.3000488-1.289978 1.3000488h-.1400146c-.710022 0-1.289978-.5800781-1.289978-1.3000488v-.7299805c0-.1000977.0700073-.1800537.1699829-.1800537h2.3800049c.0899658 0 .1699829.0799561.1699829.1800537v.7299805z" fill="#344e5c"/><path d="m73.3230362 57.9428139s.3170853-3.0819664 1.0997391-5.0615196c.1897964-.4800453.6764908-.7762375 1.1921692-.7529068.8464355.0382919 2.1832275.1954803 3.2740021.7626839 1.028511.5348244 2.0327148.3891792 2.6824265.1803703.5687561-.1827888 1.1661224.1608429 1.2935715.744503.0618591.2832832.1000671.6358299.0911865 1.0718613-.0348206 1.7101326.2773361 2.7416115.6255493 3.0550079.3482208.3134003.843956-2.6354713.843956-2.6354713s.9053726-3.4609299-1.4973373-6.455616c-2.4027176-2.9946861-6.1286697-1.8107414-6.1286697-1.8107414s-2.9395752.9401932-2.845253 2.4027138c0 0-1.2637329.1392899-1.4030228 2.1937828-.1392824 2.0544967-.1685106 5.2606772.7716826 6.3053321z" fill="#293b44"/></svg>